<svg width="200" height="200" viewBox="20 0 160 165" fill="none" xmlns="http://www.w3.org/2000/svg">
  <!-- Gear Outer Shape -->
  <path d="M100 20C96.1 20 92.4 20.6 89 21.7L85.5 10.5C84.3 6.8 80.8 4.6 77.2 5.5L62.7 9.4C59.1 10.4 57.1 14.1 58.1 17.7L61.6 28.9C56.1 32.5 51.4 37.1 47.7 42.6L36.5 39.1C32.9 38.1 29.2 40.1 28.2 43.7L24.3 58.2C23.3 61.8 25.4 65.3 29.1 66.5L40.3 70C39.2 73.4 38.6 77.1 38.6 81C38.6 84.9 39.2 88.6 40.3 92L29.1 95.5C25.4 96.7 23.3 100.2 24.3 103.8L28.2 118.3C29.2 121.9 32.9 123.9 36.5 122.9L47.7 119.4C51.4 124.9 56.1 129.5 61.6 133.1L58.1 144.3C57.1 147.9 59.1 151.6 62.7 152.6L77.2 156.5C80.8 157.4 84.3 155.2 85.5 151.5L89 140.3C92.4 141.4 96.1 142 100 142C103.9 142 107.6 141.4 111 140.3L114.5 151.5C115.7 155.2 119.2 157.4 122.8 156.5L137.3 152.6C140.9 151.6 142.9 147.9 141.9 144.3L138.4 133.1C143.9 129.5 148.6 124.9 152.3 119.4L163.5 122.9C167.1 123.9 170.8 121.9 171.8 118.3L175.7 103.8C176.7 100.2 174.6 96.7 170.9 95.5L159.7 92C160.8 88.6 161.4 84.9 161.4 81C161.4 77.1 160.8 73.4 159.7 70L170.9 66.5C174.6 65.3 176.7 61.8 175.7 58.2L171.8 43.7C170.8 40.1 167.1 38.1 163.5 39.1L152.3 42.6C148.6 37.1 143.9 32.5 138.4 28.9L141.9 17.7C142.9 14.1 140.9 10.4 137.3 9.4L122.8 5.5C119.2 4.6 115.7 6.8 114.5 10.5L111 21.7C107.6 20.6 103.9 20 100 20Z" fill="#011627"/>
  
  <!-- White Circle in Center -->
  <circle cx="100" cy="81" r="31" fill="white"/>
  
  <!-- "P" inside -->
  <text x="100" y="81" dominant-baseline="central" text-anchor="middle" font-family="serif" font-size="52" font-weight="bold" fill="#011627">P</text>
</svg>
